<svg width="286" height="286" viewBox="0 0 286 286" fill="none" xmlns="http://www.w3.org/2000/svg">
<path d="M31.6664 275.101C37.0526 277.846 43.0408 279.085 50.411 279.687C57.6698 280.281 66.7191 280.281 78.3452 280.28L78.5842 280.28L154.437 280.28L154.676 280.28C166.289 280.281 175.328 280.281 182.579 279.688C189.942 279.087 195.924 277.849 201.307 275.109C210.243 270.56 217.511 263.301 222.071 254.371C224.818 248.992 226.063 243.011 226.674 235.649C227.275 228.398 227.286 219.36 227.301 207.747L227.301 207.507L227.396 131.475L227.396 131.236C227.411 119.597 227.422 110.537 226.837 103.27C226.243 95.8921 225.009 89.8968 222.267 84.5036C217.715 75.5509 210.444 68.2706 201.497 63.7076C196.107 60.9589 190.114 59.7172 182.736 59.1141C175.469 58.5201 166.41 58.5201 154.771 58.5202L154.532 58.5202L78.5841 58.5202L78.3453 58.5202C66.7191 58.5201 57.6698 58.5201 50.4109 59.1132C43.0408 59.7153 37.0526 60.9551 31.6664 63.6995C22.7249 68.2555 15.4553 75.5251 10.8994 84.4666C8.15495 89.8528 6.91517 95.841 6.31301 103.211C5.71994 110.47 5.71996 119.519 5.71999 131.145L5.71999 131.384L5.71999 207.416L5.71999 207.655C5.71996 219.281 5.71994 228.331 6.31301 235.59C6.91518 242.96 8.15496 248.948 10.8994 254.334C15.4553 263.276 22.7249 270.545 31.6664 275.101Z" stroke="#18181B" stroke-width="10.56"/>
<path d="M84.4662 222.301C89.8524 225.045 95.8406 226.285 103.211 226.887C110.47 227.48 119.519 227.48 131.145 227.48L131.384 227.48L207.237 227.48L207.475 227.48C219.088 227.48 228.128 227.48 235.379 226.888C242.742 226.287 248.724 225.049 254.107 222.309C263.043 217.76 270.311 210.501 274.871 201.571C277.618 196.192 278.863 190.21 279.474 182.849C280.075 175.598 280.086 166.559 280.1 154.947L280.101 154.707L280.196 78.675L280.196 78.4358C280.211 66.7965 280.222 57.7372 279.637 50.4701C279.043 43.0918 277.809 37.0965 275.067 31.7033C270.515 22.7506 263.244 15.4703 254.297 10.9073C248.907 8.15856 242.913 6.91688 235.536 6.31381C228.269 5.71981 219.21 5.71983 207.57 5.71986L207.332 5.71986L131.384 5.71986L131.145 5.71986C119.519 5.71983 110.47 5.71981 103.211 6.31289C95.8406 6.91505 89.8524 8.15483 84.4662 10.8992C75.5247 15.4552 68.2551 22.7248 63.6992 31.6663C60.9548 37.0525 59.715 43.0407 59.1128 50.4108C58.5197 57.6697 58.5198 66.7189 58.5198 78.3451L58.5198 78.584L58.5198 154.616L58.5198 154.855C58.5198 166.481 58.5197 175.53 59.1128 182.789C59.715 190.159 60.9548 196.148 63.6992 201.534C68.2551 210.475 75.5247 217.745 84.4662 222.301Z" fill="#18181B" stroke="#18181B" stroke-width="10.56"/>
</svg>
